<?xml version="1.0" encoding="UTF-8"?>
<svg id="Calque_1" data-name="Calque 1" xmlns="http://www.w3.org/2000/svg" viewBox="0 0 1500 920">
  <defs>
    <style>
      .cls-1 {
        fill: #fff;
      }
    </style>
  </defs>
  <g>
    <path class="cls-1" d="M223.93,733.54h-43.73l-11.58,36.96h-15.62l40.61-121.23h17.27l40.61,121.23h-16.17l-11.39-36.96Zm-3.86-12.38l-5.7-18.48c-2.08-6.77-4.11-13.52-6.06-20.24-1.96-6.71-3.92-13.58-5.88-20.6h-.74c-1.96,7.02-3.92,13.89-5.88,20.6-1.96,6.72-3.98,13.46-6.06,20.24l-5.7,18.48h36.02Z"/>
    <path class="cls-1" d="M281.99,649.27h15.07v108.11h59.72v13.12h-74.79v-121.23Z"/>
    <path class="cls-1" d="M415.03,662.21h-39.69v-12.94h94.82v12.94h-39.69v108.29h-15.43v-108.29Z"/>
    <path class="cls-1" d="M499,649.27h74.42v12.94h-58.98v38.07h49.8v13.12h-49.8v43.98h60.82v13.12h-76.26v-121.23Z"/>
    <path class="cls-1" d="M672.27,770.5l-29.03-51.19h-21.5v51.19h-15.25v-121.23h37.49c6.12,0,11.76,.59,16.91,1.76,5.15,1.17,9.58,3.11,13.32,5.82,3.74,2.71,6.64,6.22,8.73,10.53,2.08,4.31,3.12,9.61,3.12,15.89,0,9.49-2.45,17.06-7.35,22.73-4.9,5.67-11.46,9.55-19.66,11.64l30.69,52.85h-17.46Zm-50.53-63.75h20.03c9.43,0,16.63-1.94,21.59-5.82,4.96-3.88,7.44-9.76,7.44-17.65s-2.48-13.61-7.44-16.82c-4.96-3.2-12.16-4.8-21.59-4.8h-20.03v45.09Z"/>
    <path class="cls-1" d="M713.62,649.27h15.62l39.14,76.51,12.13,24.76h.37c-.25-6.03-.64-12.35-1.19-18.94-.55-6.59-.83-13.09-.83-19.5v-62.83h14.52v121.23h-15.62l-39.14-76.51-12.13-24.76h-.37c.24,6.28,.64,12.6,1.19,18.94,.55,6.35,.83,12.66,.83,18.94v63.39h-14.52v-121.23Z"/>
    <path class="cls-1" d="M885.42,733.54h-43.73l-11.58,36.96h-15.62l40.61-121.23h17.27l40.61,121.23h-16.17l-11.39-36.96Zm-3.86-12.38l-5.7-18.48c-2.08-6.77-4.11-13.52-6.06-20.24-1.96-6.71-3.92-13.58-5.88-20.6h-.73c-1.96,7.02-3.92,13.89-5.88,20.6-1.96,6.72-3.98,13.46-6.06,20.24l-5.7,18.48h36.01Z"/>
    <path class="cls-1" d="M966.27,662.21h-39.69v-12.94h94.82v12.94h-39.69v108.29h-15.44v-108.29Z"/>
    <path class="cls-1" d="M1046.57,757.38h29.95v-95.17h-29.95v-12.94h75.34v12.94h-29.95v95.17h29.95v13.12h-75.34v-13.12Z"/>
    <path class="cls-1" d="M1147.26,649.27h16.17l19.48,65.42c2.08,7.27,3.98,13.98,5.7,20.14,1.71,6.16,3.67,12.81,5.88,19.96h.74c1.1-3.57,2.14-6.99,3.12-10.26,.98-3.26,1.93-6.5,2.85-9.7,.92-3.2,1.84-6.47,2.76-9.79,.92-3.33,1.87-6.77,2.85-10.35l19.29-65.42h15.62l-38.22,121.23h-17.82l-38.4-121.23Z"/>
    <path class="cls-1" d="M1270.74,649.27h74.42v12.94h-58.98v38.07h49.8v13.12h-49.8v43.98h60.82v13.12h-76.26v-121.23Z"/>
  </g>
  <g>
    <path class="cls-1" d="M575.36,810.15h24.22v4.23h-19.21v13.41h16.25v4.23h-16.25v17.76h-5.01v-39.63Z"/>
    <path class="cls-1" d="M621.57,850.5c-2.26,0-4.31-.48-6.16-1.45-1.85-.97-3.45-2.35-4.8-4.14-1.35-1.79-2.4-3.97-3.14-6.52-.75-2.56-1.12-5.43-1.12-8.61s.37-6.03,1.12-8.55c.74-2.52,1.79-4.65,3.14-6.4,1.35-1.75,2.95-3.09,4.8-4.02,1.85-.93,3.91-1.39,6.16-1.39s4.26,.47,6.13,1.42c1.87,.95,3.48,2.3,4.83,4.05,1.35,1.75,2.4,3.89,3.14,6.4,.74,2.52,1.12,5.35,1.12,8.49s-.37,6.05-1.12,8.61c-.75,2.56-1.79,4.73-3.14,6.52-1.35,1.79-2.96,3.17-4.83,4.14-1.87,.97-3.92,1.45-6.13,1.45Zm0-4.41c1.49,0,2.86-.38,4.11-1.15,1.25-.76,2.3-1.86,3.17-3.29,.87-1.43,1.54-3.14,2.02-5.13,.48-1.99,.72-4.24,.72-6.74s-.24-4.67-.72-6.65c-.48-1.97-1.16-3.64-2.02-5.01-.87-1.37-1.92-2.43-3.17-3.17-1.25-.74-2.62-1.12-4.11-1.12s-2.91,.37-4.14,1.12c-1.23,.75-2.28,1.8-3.14,3.17-.87,1.37-1.54,3.04-2.02,5.01-.48,1.97-.72,4.19-.72,6.65s.24,4.74,.72,6.74c.48,1.99,1.16,3.71,2.02,5.13,.87,1.43,1.91,2.53,3.14,3.29,1.23,.77,2.61,1.15,4.14,1.15Z"/>
    <path class="cls-1" d="M644.47,810.15h5.07v24.77c0,2.05,.21,3.8,.63,5.23,.42,1.43,1.01,2.58,1.75,3.44,.74,.87,1.62,1.5,2.63,1.9,1.01,.4,2.11,.6,3.32,.6s2.32-.2,3.32-.6c1.01-.4,1.89-1.04,2.66-1.9,.76-.87,1.36-2.01,1.78-3.44,.42-1.43,.63-3.17,.63-5.23v-24.77h4.89v24.65c0,2.86-.33,5.28-1,7.25-.66,1.97-1.58,3.59-2.75,4.86-1.17,1.27-2.57,2.18-4.2,2.75-1.63,.56-3.41,.85-5.35,.85s-3.73-.28-5.38-.85c-1.65-.56-3.07-1.48-4.26-2.75-1.19-1.27-2.11-2.89-2.78-4.86-.66-1.97-1-4.39-1-7.25v-24.65Z"/>
    <path class="cls-1" d="M680.95,810.15h5.13l12.87,25.01,3.99,8.09h.12c-.08-1.97-.21-4.04-.39-6.19-.18-2.15-.27-4.28-.27-6.37v-20.54h4.77v39.63h-5.13l-12.87-25.01-3.99-8.09h-.12c.08,2.05,.21,4.12,.39,6.19,.18,2.07,.27,4.14,.27,6.19v20.72h-4.77v-39.63Z"/>
    <path class="cls-1" d="M717.32,810.15h9.67c6,0,10.56,1.69,13.68,5.07,3.12,3.38,4.68,8.24,4.68,14.56,0,3.14-.39,5.95-1.18,8.43-.79,2.48-1.94,4.57-3.47,6.28-1.53,1.71-3.42,3.02-5.68,3.93-2.26,.91-4.85,1.36-7.79,1.36h-9.91v-39.63Zm9.36,35.52c4.51,0,7.88-1.39,10.12-4.17,2.23-2.78,3.35-6.68,3.35-11.72s-1.12-8.88-3.35-11.54c-2.24-2.66-5.61-3.99-10.12-3.99h-4.35v31.41h4.35Z"/>
    <path class="cls-1" d="M773.68,837.69h-14.38l-3.81,12.08h-5.13l13.35-39.63h5.68l13.35,39.63h-5.32l-3.75-12.08Zm-1.27-4.05l-1.87-6.04c-.69-2.21-1.35-4.42-1.99-6.61-.64-2.19-1.29-4.44-1.93-6.74h-.24c-.64,2.3-1.29,4.54-1.93,6.74-.64,2.2-1.31,4.4-1.99,6.61l-1.87,6.04h11.84Z"/>
    <path class="cls-1" d="M800.26,814.38h-13.05v-4.23h31.17v4.23h-13.05v35.4h-5.07v-35.4Z"/>
    <path class="cls-1" d="M826.66,845.49h9.85v-31.11h-9.85v-4.23h24.77v4.23h-9.85v31.11h9.85v4.29h-24.77v-4.29Z"/>
    <path class="cls-1" d="M875.28,850.5c-2.26,0-4.31-.48-6.16-1.45-1.85-.97-3.45-2.35-4.8-4.14-1.35-1.79-2.4-3.97-3.14-6.52-.75-2.56-1.12-5.43-1.12-8.61s.37-6.03,1.12-8.55c.74-2.52,1.79-4.65,3.14-6.4,1.35-1.75,2.95-3.09,4.8-4.02,1.85-.93,3.91-1.39,6.16-1.39s4.26,.47,6.13,1.42c1.87,.95,3.48,2.3,4.83,4.05,1.35,1.75,2.4,3.89,3.14,6.4,.74,2.52,1.12,5.35,1.12,8.49s-.37,6.05-1.12,8.61c-.75,2.56-1.79,4.73-3.14,6.52-1.35,1.79-2.96,3.17-4.83,4.14-1.87,.97-3.92,1.45-6.13,1.45Zm0-4.41c1.49,0,2.86-.38,4.11-1.15,1.25-.76,2.31-1.86,3.17-3.29,.87-1.43,1.54-3.14,2.02-5.13,.48-1.99,.72-4.24,.72-6.74s-.24-4.67-.72-6.65c-.48-1.97-1.16-3.64-2.02-5.01-.87-1.37-1.92-2.43-3.17-3.17-1.25-.74-2.62-1.12-4.11-1.12s-2.91,.37-4.14,1.12c-1.23,.75-2.28,1.8-3.14,3.17-.87,1.37-1.54,3.04-2.02,5.01-.48,1.97-.72,4.19-.72,6.65s.24,4.74,.72,6.74c.48,1.99,1.16,3.71,2.02,5.13,.87,1.43,1.91,2.53,3.14,3.29,1.23,.77,2.61,1.15,4.14,1.15Z"/>
    <path class="cls-1" d="M898.42,810.15h5.13l12.87,25.01,3.99,8.09h.12c-.08-1.97-.21-4.04-.39-6.19-.18-2.15-.27-4.28-.27-6.37v-20.54h4.77v39.63h-5.13l-12.87-25.01-3.99-8.09h-.12c.08,2.05,.21,4.12,.39,6.19,.18,2.07,.27,4.14,.27,6.19v20.72h-4.77v-39.63Z"/>
  </g>
  <path class="cls-1" d="M649.73,479.37l35.11,38.92c-.13-.45-.26-.91-.39-1.38-15.14-54.92-54.48-99.91-107.34-121.15-1.6-.64-3.15-1.31-4.63-2.01l35.12,38.92c-65.48,59.4-126.65,100.51-215.28,93.29-55.17-4.95-98.42-26.53-134.28-69.11-119.82-143.57,30.23-378.54,238.89-283.72,168.73,76.58,320.11,330.39,500.6,397.15,157.08,59.3,284.87-20.76,331.66-142.04,56.4-146.42-24.95-292.5-169.59-333.4-126.66-35.86-209.55,17.09-307.58,105.24l-35.15-38.9c.09,.31,.19,.64,.28,.97,15.41,55.35,55.57,100,108.67,121.94,1.21,.5,2.38,1.01,3.5,1.54l-35.14-38.89c104.65-94.1,184.57-141.95,304.58-65.71,171.11,111.92,63.15,375.24-129.65,344.06-216.41-34.87-383.78-396.14-627.38-434.07-149.53-28.08-304.21,103.32-287.73,272.42,16.72,159.03,175.25,259.46,321.6,215.76,76.49-22.88,114.43-45.71,174.12-99.85Z"/>
</svg>